<?xml version="1.0" standalone="no"?>
<!DOCTYPE svg PUBLIC "-//W3C//DTD SVG 20010904//EN"
 "http://www.w3.org/TR/2001/REC-SVG-20010904/DTD/svg10.dtd">
<svg version="1.0" xmlns="http://www.w3.org/2000/svg"
 width="700.000000pt" height="700.000000pt" viewBox="0 0 700.000000 700.000000"
 preserveAspectRatio="xMidYMid meet">
<metadata>
Created by potrace 1.14, written by Peter Selinger 2001-2017
</metadata>
<g transform="translate(0.000000,700.000000) scale(0.100000,-0.100000)"
fill="#000000" stroke="none">
<path d="M2677 4515 c-21 -8 -52 -24 -70 -36 -18 -12 -257 -246 -532 -519
l-500 -498 -81 -5 c-136 -8 -227 -66 -281 -175 l-28 -57 0 -255 c0 -243 1
-257 22 -300 36 -73 79 -117 147 -150 l63 -31 264 3 c234 3 268 5 299 21 19
11 267 250 550 532 l515 513 90 5 c108 5 169 31 231 99 73 79 79 108 79 388 0
243 0 245 -26 301 -34 72 -99 134 -166 159 -49 18 -77 20 -296 19 -180 0 -252
-4 -280 -14z"/>
<path d="M4579 4517 c-20 -8 -54 -24 -75 -37 -22 -13 -264 -247 -539 -521
l-500 -497 -76 -4 c-137 -8 -246 -82 -289 -194 -18 -50 -20 -78 -20 -293 0
-286 5 -307 89 -392 85 -85 105 -89 400 -89 242 0 247 1 301 26 47 21 133 103
565 534 l510 508 86 4 c137 7 221 58 281 171 22 40 23 55 26 300 l3 258 -26
57 c-32 70 -74 115 -140 150 -50 27 -50 27 -305 29 -192 2 -264 -1 -291 -10z"/>
<path d="M5075 3451 c-90 -23 -178 -101 -211 -187 -17 -43 -19 -77 -19 -299 0
-246 0 -251 25 -300 34 -69 99 -129 166 -154 50 -19 77 -21 293 -21 286 0 307
5 392 89 85 85 89 105 89 401 l0 247 -30 61 c-35 68 -82 115 -149 146 -42 19
-65 21 -286 23 -132 1 -253 -2 -270 -6z"/>
</g>
</svg>
