<svg xmlns="http://www.w3.org/2000/svg" width="38" height="38" fill="none" class="styles_metromLogo__8ZR_C" viewBox="0 0 38 38"><rect width="38" height="38" fill="#6CFF95" rx="8.444"/><path fill="#000" fill-rule="evenodd" d="M13.7847 13.1621C14.0514 12.9648 14.3814 12.8481 14.7386 12.8481H16.6716C17.5585 12.8481 18.2774 13.5671 18.2774 14.454V16.3869C18.2774 17.2738 17.5585 17.9928 16.6716 17.9928H16.1647L11.0626 23.0949C10.7682 23.4596 10.3175 23.693 9.81222 23.693H7.87927C6.99239 23.693 6.27344 22.974 6.27344 22.0871V20.1542C6.27344 19.2673 6.99239 18.5483 7.87927 18.5483H8.3335L13.4815 13.4003C13.5748 13.307 13.6767 13.2276 13.7847 13.1621ZM25.6904 20.1469C25.6904 19.26 26.4094 18.541 27.2963 18.541H29.2292C30.1161 18.541 30.8351 19.26 30.8351 20.1469V22.0798C30.8351 22.9667 30.1161 23.6856 29.2292 23.6856H27.2963C26.4094 23.6856 25.6904 22.9667 25.6904 22.0798V20.1469ZM24.8031 12.8481C24.461 12.8481 24.1439 12.9551 23.8835 13.1374C23.7598 13.2073 23.6435 13.295 23.5382 13.4003L18.3901 18.5483H17.9359C17.049 18.5483 16.3301 19.2673 16.3301 20.1542V22.0871C16.3301 22.974 17.049 23.693 17.9359 23.693H19.8689C20.3741 23.693 20.8248 23.4596 21.1192 23.0949L26.2213 17.9928H26.7361C27.6229 17.9928 28.3419 17.2738 28.3419 16.3869V14.454C28.3419 13.5671 27.6229 12.8481 26.7361 12.8481H24.8031Z" clip-rule="evenodd"/></svg>